#N canvas 0 53 1366 715 10;
#X declare -lib mrpeach;
#X obj 85 243 unpackOSC;
#X floatatom 187 189 3 0 0 0 - - -;
#X floatatom 218 189 3 0 0 0 - - -;
#X floatatom 250 189 3 0 0 0 - - -;
#X floatatom 282 189 3 0 0 0 - - -;
#X obj 85 58 import mrpeach;
#X floatatom 86 429 10 0 0 0 - - -;
#X obj 86 392 f;
#X obj 85 118 udpreceive 7000;
#X obj 86 465 print accX;
#X floatatom 167 430 10 0 0 0 - - -;
#X obj 167 393 f;
#X floatatom 243 430 10 0 0 0 - - -;
#X obj 243 393 f;
#X obj 167 466 print accY;
#X obj 243 466 print accZ;
#X obj 187 158 unpack 127.0.0.1;
#X floatatom 339 428 10 0 0 0 - - -;
#X obj 337 393 f;
#X floatatom 425 433 10 0 0 0 - - -;
#X obj 425 396 f;
#X obj 337 466 print gyrX;
#X obj 425 469 print gyrY;
#X obj 86 331 routeOSC /accX /accY /accZ /gyrX /gyrY;
#X obj 875 237 bng 15 250 50 0 empty empty empty 17 7 0 10 -262144
-1 -1;
#X obj 881 272 openpanel;
#X msg 889 317 open \$1;
#X obj 881 362 readsf~;
#X msg 828 302 1;
#X obj 896 474 *~;
#X obj 854 567 dac~ 1 2;
#X obj 678 224 bng 15 250 50 0 empty empty empty 17 7 0 10 -262144
-1 -1;
#X obj 684 259 openpanel;
#X msg 692 304 open \$1;
#X obj 684 349 readsf~;
#X msg 631 289 1;
#X obj 714 445 *~;
#X obj 975 155 hsl 128 15 0 4 0 0 empty empty empty -2 -8 0 10 -4032
-1 -1 12700 1;
#X obj 822 19 / 100;
#X msg 1151 377 \$1 100;
#X obj 1082 438 line~;
#X obj 393 586 hsl 128 15 0 4 0 0 empty empty empty -2 -8 0 10 -4032
-1 -1 8096 1;
#X msg 531 564 \$1 100;
#X obj 627 573 line~;
#X obj 392 499 / 100;
#X obj 326 629 osc~ 2;
#X obj 156 513 knob 32 32 0 4 0 0 empty empty empty 0 -8 0 8 -45076
-1 -1 1418 1;
#X obj 231 580 line~;
#X msg 181 557 \$1 100;
#X obj 46 497 / 100;
#X obj 718 494 *~ 0.7;
#X obj 897 524 *~ 0.5;
#N canvas 0 0 450 300 (subpatch) 0;
#X array array1 100 float 5;
#A 0 0 0 0 0 0 0 0 0 0 0 0 0 0 0 0 0 0 0 0 0 0 0 0 0 0 0 0 0 0 0 0
0 0 0 0 0 0 0 0 0 0 0 0 0 0 0 0 0 0 0 0 0 0 0 0 0 0 0 0 0 0 0 0 0 0
0 0 0 0 0 0 0 0 0 0 0 0 0 0 0 0 0 0 0 0 0 0 0 0 0 0 0 0 0 0 0 0 0 0
0;
#X coords 0 1 99 -1 200 140 1;
#X restore 368 76 graph;
#X connect 0 0 23 0;
#X connect 6 0 9 0;
#X connect 6 0 49 0;
#X connect 7 0 6 0;
#X connect 8 0 0 0;
#X connect 8 0 16 0;
#X connect 10 0 14 0;
#X connect 11 0 10 0;
#X connect 12 0 15 0;
#X connect 13 0 12 0;
#X connect 16 0 1 0;
#X connect 17 0 21 0;
#X connect 17 0 44 0;
#X connect 18 0 17 0;
#X connect 19 0 22 0;
#X connect 19 0 38 0;
#X connect 20 0 19 0;
#X connect 23 0 7 0;
#X connect 23 1 11 0;
#X connect 23 2 13 0;
#X connect 23 3 18 0;
#X connect 23 4 20 0;
#X connect 24 0 25 0;
#X connect 25 0 26 0;
#X connect 26 0 27 0;
#X connect 27 0 29 0;
#X connect 28 0 27 0;
#X connect 29 0 51 0;
#X connect 31 0 32 0;
#X connect 32 0 33 0;
#X connect 33 0 34 0;
#X connect 34 0 36 0;
#X connect 35 0 34 0;
#X connect 36 0 50 0;
#X connect 37 0 39 0;
#X connect 38 0 37 0;
#X connect 39 0 40 0;
#X connect 40 0 29 1;
#X connect 41 0 42 0;
#X connect 42 0 43 0;
#X connect 43 0 36 1;
#X connect 44 0 41 0;
#X connect 45 0 36 1;
#X connect 46 0 48 0;
#X connect 47 0 45 0;
#X connect 48 0 47 0;
#X connect 49 0 46 0;
#X connect 50 0 30 0;
#X connect 51 0 30 1;
